<?xml version="1.0" standalone="no"?>
<!DOCTYPE svg PUBLIC "-//W3C//DTD SVG 20010904//EN"
 "http://www.w3.org/TR/2001/REC-SVG-20010904/DTD/svg10.dtd">
<svg version="1.0" xmlns="http://www.w3.org/2000/svg"
 width="460.000000pt" height="460.000000pt" viewBox="0 0 460.000000 460.000000"
 preserveAspectRatio="xMidYMid meet">
<metadata>
Created by potrace 1.14, written by Peter Selinger 2001-2017
</metadata>
<g transform="translate(0.000000,460.000000) scale(0.100000,-0.100000)"
fill="#000000" stroke="none">
<path d="M0 2300 l0 -2300 2300 0 2300 0 0 2300 0 2300 -2300 0 -2300 0 0
-2300z m2055 1983 c78 -31 163 -74 175 -88 17 -20 12 -19 -56 11 -33 14 -75
32 -94 41 -19 8 -57 25 -85 38 -47 22 -48 23 -15 19 19 -3 53 -13 75 -21z
m170 -144 c17 -7 44 -24 61 -36 17 -13 34 -23 38 -23 13 0 119 -110 113 -116
-6 -6 -95 63 -137 106 -16 16 -38 29 -110 68 -91 48 -72 49 35 1z m267 11 c-1
-6 2 -8 8 -5 12 7 46 -19 61 -46 17 -32 -26 -9 -72 37 -36 37 -39 43 -19 36
14 -6 24 -15 22 -22z m-338 -19 c10 -16 -6 -42 -23 -39 -9 2 -17 13 -19 26 -3
16 2 22 17 22 11 0 22 -4 25 -9z m898 -56 c89 -92 173 -223 154 -242 -3 -3 -6
-1 -6 6 0 7 -15 32 -32 55 -18 24 -40 54 -48 66 -8 13 -35 48 -60 79 -70 87
-73 91 -66 91 3 0 29 -25 58 -55z m-1519 -10 c8 -7 26 -17 40 -20 15 -4 31
-13 38 -21 15 -18 8 -18 -27 1 -16 8 -52 19 -81 26 -30 6 -51 15 -48 20 9 14
62 11 78 -6z m936 -13 c48 -29 181 -153 181 -168 0 -19 -12 -18 -31 4 -9 9
-38 35 -65 57 -55 45 -124 112 -124 120 0 9 8 6 39 -13z m827 -151 c13 -30 22
-56 20 -58 -8 -8 -64 74 -89 132 l-27 60 36 -40 c20 -22 47 -64 60 -94z
m-1506 79 c13 -9 13 -10 0 -10 -8 0 -22 5 -30 10 -13 9 -13 10 0 10 8 0 22 -5
30 -10z m1714 -16 c3 -9 6 -32 6 -52 0 -35 0 -36 -15 -15 -24 34 -31 83 -12
83 8 0 18 -7 21 -16z m-829 -4 c3 -5 1 -10 -4 -10 -6 0 -11 5 -11 10 0 6 2 10
4 10 3 0 8 -4 11 -10z m11 -63 c28 -29 55 -66 108 -149 12 -20 1 -12 -36 24
-51 50 -106 128 -121 173 -6 19 -6 19 6 2 7 -11 26 -33 43 -50z m-338 -80 c5
-44 14 -83 20 -89 7 -7 29 -2 67 16 59 27 95 33 95 17 0 -5 -13 -38 -30 -73
-45 -94 -46 -90 70 -135 24 -10 23 -11 -29 -37 l-54 -28 37 -30 c38 -31 46
-48 22 -48 -24 0 -76 -34 -76 -50 1 -8 7 -24 15 -34 25 -33 18 -46 -24 -46
-49 0 -60 15 -32 44 12 12 21 31 20 42 0 14 -3 12 -11 -8 -5 -16 -13 -28 -17
-28 -11 0 -5 54 7 58 8 2 8 11 1 28 -5 14 -9 41 -9 59 0 27 6 37 26 48 l27 14
-32 6 c-30 6 -35 16 -34 64 1 7 -3 10 -8 7 -5 -3 -9 1 -9 9 0 8 -9 22 -20 32
-11 10 -20 13 -20 8 0 -6 6 -16 14 -22 16 -13 28 -51 17 -51 -4 0 -22 18 -39
39 -23 29 -37 38 -52 34 -11 -3 -20 -1 -20 5 0 12 28 24 40 17 8 -5 23 66 15
73 -2 3 -9 -7 -14 -22 -12 -30 -12 -30 -69 -13 -25 8 -39 17 -35 22 4 6 -1 2
-12 -7 -22 -18 -72 -34 -94 -29 -7 1 -10 -2 -6 -9 4 -6 3 -16 -2 -23 -13 -17
-53 -131 -53 -151 0 -9 -6 -16 -12 -15 -25 3 -48 -1 -48 -8 0 -5 14 -16 30
-25 35 -20 38 -38 10 -63 -11 -10 -20 -26 -20 -37 0 -13 -7 -18 -25 -18 -14 0
-25 4 -25 9 0 5 11 16 25 25 14 9 25 23 25 31 0 14 -32 47 -90 93 l-25 20 35
11 35 11 -34 -5 c-19 -3 -36 -7 -39 -9 -8 -8 9 -46 21 -46 7 -1 30 -16 52 -36
l40 -35 -34 -29 c-18 -15 -40 -26 -47 -23 -8 3 -12 9 -9 13 2 4 -4 15 -15 25
-16 14 -23 15 -34 6 -13 -11 -18 -6 -31 24 -8 21 -15 44 -15 51 0 10 -13 14
-44 14 -50 0 -76 -8 -76 -22 0 -6 7 -7 18 -2 9 4 34 8 55 9 30 1 37 -2 37 -17
0 -11 5 -28 11 -39 8 -15 7 -24 -3 -37 -9 -11 -10 -14 0 -8 8 5 16 -2 22 -19
13 -33 13 -166 1 -146 -5 8 -7 21 -3 29 3 10 1 13 -6 8 -7 -4 -12 -3 -12 3 0
5 5 13 10 16 6 3 10 12 10 18 0 8 -3 8 -9 -2 -6 -9 -8 -5 -8 14 0 15 -5 30
-11 34 -9 6 -17 34 -29 107 -5 30 -7 31 -36 23 -18 -4 -41 -7 -52 -6 -17 2
-20 -3 -17 -32 l4 -34 -109 4 c-196 5 -209 3 -223 -31 -7 -17 -10 -33 -7 -36
3 -4 43 -1 88 5 112 15 251 14 270 -1 18 -15 53 -103 54 -135 1 -15 -5 -23
-16 -23 -17 0 -32 -35 -33 -80 -1 -25 -2 -25 -99 -28 -79 -2 -106 1 -142 17
-24 11 -50 24 -57 30 -45 38 -62 51 -69 51 -6 0 -49 -65 -49 -76 0 -2 7 -4 15
-4 24 0 60 -20 73 -40 11 -18 10 -19 -14 -10 -14 6 -40 10 -58 10 -40 0 -77
33 -58 52 7 7 12 23 12 36 0 17 9 27 35 38 19 8 35 18 35 23 0 5 -21 19 -46
31 l-46 23 -40 -23 c-21 -12 -41 -20 -43 -19 -6 7 54 56 61 50 4 -3 4 0 0 7
-4 6 -22 12 -41 12 -46 0 -52 16 -19 51 26 27 27 30 14 68 -16 49 -30 44 -30
-9 0 -45 -36 -127 -59 -135 -9 -3 -25 -18 -36 -35 -11 -16 -23 -30 -27 -30
-14 0 7 47 34 79 48 54 17 57 -80 5 -46 -24 -86 -44 -88 -44 -2 0 -1 7 3 15 3
9 8 14 11 11 6 -7 40 31 58 67 24 45 35 125 22 147 -18 28 0 40 50 33 43 -6
44 -7 38 -37 -7 -36 8 -66 23 -51 6 6 14 33 17 60 7 53 23 83 34 66 4 -7 58
-8 170 -1 91 6 231 7 313 2 81 -4 147 -4 147 1 0 4 -15 7 -32 7 -18 1 -55 7
-83 14 l-50 14 35 4 c34 3 34 4 -22 21 -32 10 -58 19 -58 21 0 2 24 1 53 -1
l52 -4 -88 30 c-48 17 -96 31 -105 31 -14 1 -15 2 -2 9 8 5 66 14 128 21 62 7
115 16 117 21 3 4 -18 12 -47 18 -90 17 -94 19 -53 20 123 3 285 -36 277 -68
-1 -8 4 -8 17 1 11 7 18 15 16 18 -2 3 30 2 72 -3 41 -5 79 -5 84 0 4 4 1 37
-6 73 -17 78 -18 90 -5 70 8 -12 10 -9 10 13 l0 29 62 -54 c35 -29 71 -62 80
-73 17 -20 17 -20 28 11 11 30 23 53 65 122 l20 32 7 -27 c3 -16 11 -63 16
-106z m-545 78 c22 -4 44 -2 51 5 17 13 46 3 46 -16 0 -8 8 -17 18 -20 9 -3
42 -17 74 -31 46 -21 57 -31 62 -56 3 -17 4 -33 1 -35 -12 -12 -109 1 -249 33
-82 20 -151 37 -153 39 -3 2 27 9 66 16 39 6 71 16 71 21 0 5 -20 18 -45 29
-25 11 -45 22 -45 25 0 6 11 5 103 -10z m847 -76 c0 -5 5 -9 12 -9 7 0 21 -11
33 -24 67 -79 135 -164 135 -168 0 -9 81 -127 91 -133 14 -9 11 2 -11 45 -25
49 -25 62 0 31 11 -13 20 -32 20 -42 0 -10 4 -19 9 -19 10 0 33 -40 92 -160
75 -152 73 -135 76 -545 2 -302 0 -375 -11 -400 -8 -16 -18 -43 -22 -58 -13
-54 -56 -44 -70 16 -7 31 -7 31 -17 10 -21 -46 -28 -22 -21 70 5 80 2 111 -25
242 -39 191 -44 207 -80 262 -17 26 -31 51 -31 56 0 5 -20 39 -44 76 -50 76
-76 125 -76 143 0 14 -22 42 -96 121 -35 37 -43 53 -38 70 5 16 -1 28 -30 52
l-37 31 55 24 c31 13 56 26 56 30 0 4 -31 20 -70 35 -38 15 -70 31 -69 34 0 3
19 46 43 94 l43 89 -31 -6 c-86 -17 -102 -18 -115 -2 -17 20 -6 36 25 36 18 0
24 6 25 23 0 12 3 16 6 10 8 -22 25 -14 18 8 -6 18 -4 20 17 14 36 -11 43 -11
41 2 -2 7 20 -1 47 -18 28 -17 50 -35 50 -40z m144 55 c18 -7 22 -39 6 -49 -6
-3 -19 -3 -30 0 -22 7 -27 40 -7 48 6 3 13 6 14 6 1 1 8 -2 17 -5z m-1194 -14
c0 -5 -7 -10 -15 -10 -8 0 -15 5 -15 10 0 6 7 10 15 10 8 0 15 -4 15 -10z
m810 -102 c0 -4 -9 -8 -20 -8 -11 0 -20 6 -20 14 0 8 -3 23 -7 33 -5 14 -1 13
20 -6 15 -14 27 -28 27 -33z m420 42 c0 -5 -7 -10 -15 -10 -8 0 -15 5 -15 10
0 6 7 10 15 10 8 0 15 -4 15 -10z m1132 -77 c25 -63 34 -188 17 -228 -12 -29
-13 -26 -21 53 -4 45 -16 121 -27 168 -15 73 -16 83 -3 70 9 -8 24 -37 34 -63z
m-1676 -26 c3 -2 -9 -10 -26 -15 -30 -11 -33 -19 -21 -71 1 -2 10 7 22 20 14
17 22 20 25 12 8 -18 25 -16 18 2 -8 21 0 19 22 -7 13 -14 14 -19 4 -14 -11 5
-10 4 1 -6 15 -12 15 -15 -7 -25 -13 -6 -26 -7 -29 -3 -3 5 1 10 7 13 7 2 10
7 7 11 -3 3 -16 -6 -28 -20 l-22 -26 22 7 c13 4 19 3 15 -3 -3 -5 -14 -12 -25
-15 -26 -6 -35 19 -13 33 15 10 15 11 -2 5 -11 -3 -23 0 -27 7 -5 8 -8 1 -6
-19 1 -17 5 -29 10 -26 4 2 7 -1 7 -8 0 -8 -14 -10 -47 -6 l-48 6 38 -14 c37
-14 41 -13 99 16 33 16 67 29 76 27 12 -2 4 -10 -22 -23 -22 -11 -42 -26 -44
-34 -3 -7 5 -4 18 9 16 16 29 20 47 15 15 -3 22 -2 19 4 -4 5 -2 12 3 15 24
15 37 -109 21 -204 -8 -46 -15 -68 -20 -59 -5 7 -7 16 -4 20 2 4 0 11 -6 14
-6 4 -9 1 -8 -7 2 -8 -8 -14 -26 -16 -17 -2 -26 0 -22 6 3 6 0 13 -6 15 -9 4
-8 6 3 6 8 1 21 -5 28 -11 11 -10 12 -10 7 -1 -4 8 3 17 18 25 27 12 33 23 16
33 -5 3 -10 2 -10 -3 0 -5 -12 -14 -26 -21 -22 -10 -33 -9 -65 8 l-39 21 0
-40 c0 -21 -4 -41 -9 -45 -9 -5 -13 3 -25 57 l-6 28 -36 -19 c-28 -15 -42 -17
-62 -10 -21 8 -29 7 -39 -7 -12 -16 -13 -15 -13 10 0 15 4 25 9 21 5 -3 13 -1
16 5 4 6 1 9 -7 8 -8 -2 -14 8 -15 27 -1 20 0 23 4 8 3 -18 11 -23 31 -22 24
2 24 2 5 6 -19 4 -23 11 -23 40 0 32 2 35 23 28 12 -4 41 -10 64 -12 23 -3 44
-11 47 -19 7 -19 -21 -44 -52 -45 l-27 0 24 -10 c16 -6 28 -6 36 1 10 8 16 6
25 -7 9 -16 10 -15 4 6 -4 16 -3 21 5 17 7 -5 9 -1 5 11 -4 11 2 8 17 -10 23
-26 26 -27 79 -18 30 5 58 7 61 6 8 -5 11 82 4 106 -4 10 -13 19 -22 19 -12 0
-13 -3 -4 -14 9 -11 3 -16 -33 -25 -58 -14 -76 -14 -76 2 0 7 -14 12 -35 13
-30 0 -32 -1 -17 -12 15 -12 11 -13 -28 -14 -52 0 -110 30 -109 57 0 13 3 11
10 -7 8 -20 12 -22 19 -10 6 9 5 17 -2 21 -15 10 7 20 29 13 17 -5 17 -5 0 6
-10 6 -24 10 -30 7 -9 -3 -12 5 -9 29 3 20 10 34 18 34 8 0 14 7 14 16 0 18
25 46 34 37 3 -4 6 -1 6 6 0 7 4 10 9 6 5 -3 13 0 16 6 7 10 100 7 111 -4z
m1392 -108 c2 -32 0 -59 -6 -63 -9 -5 -15 25 -27 144 l-5 45 17 -35 c9 -19 18
-60 21 -91z m222 111 c0 -5 -7 -10 -15 -10 -8 0 -15 5 -15 10 0 6 7 10 15 10
8 0 15 -4 15 -10z m-898 -85 c21 -38 -29 14 -52 54 l-20 36 31 -35 c17 -19 35
-44 41 -55z m568 53 c0 -36 -4 -35 -14 5 -4 16 -2 27 4 27 5 0 10 -14 10 -32z
m-2191 6 c35 -7 32 -24 -4 -24 -30 0 -55 10 -55 21 0 11 16 11 59 3z m2140
-106 c27 -67 31 -93 47 -318 14 -202 15 -260 5 -330 -6 -47 -16 -132 -21 -190
-5 -58 -14 -118 -19 -133 -13 -35 -13 -37 -1 -37 5 0 14 19 20 43 18 71 51
156 66 168 11 9 14 6 14 -19 0 -17 -6 -51 -14 -74 -8 -24 -19 -68 -25 -99 -5
-31 -22 -81 -36 -112 -25 -52 -100 -137 -141 -160 -21 -12 -288 -16 -300 -5
-4 5 0 35 9 68 26 93 40 331 33 554 -4 110 -9 213 -11 230 -4 28 -4 29 4 6 11
-31 14 -21 13 55 0 33 1 51 4 40 19 -76 33 -19 33 139 1 93 3 107 14 92 13
-17 14 -17 31 8 10 16 14 35 11 47 -8 26 11 49 41 49 13 0 28 8 33 19 14 25
65 45 101 37 26 -5 30 -3 30 16 l0 22 15 -21 c8 -12 28 -54 44 -95z m-1257 87
c0 -5 -5 -11 -11 -13 -6 -2 -11 4 -11 13 0 9 5 15 11 13 6 -2 11 -8 11 -13z
m886 3 c-3 -7 -11 -13 -18 -13 -7 0 -15 6 -17 13 -3 7 4 12 17 12 13 0 20 -5
18 -12z m-2186 -18 c-36 -22 -42 -24 -42 -12 0 11 39 30 60 31 8 1 0 -8 -18
-19z m275 -26 c8 -21 -13 -42 -28 -27 -13 13 -5 43 11 43 6 0 13 -7 17 -16z
m-182 -13 c-9 -16 -65 -43 -65 -32 0 9 62 50 69 45 1 -1 0 -8 -4 -13z m-240
-70 c-23 -22 -75 -36 -75 -21 0 13 48 32 60 25 5 -3 11 -1 15 5 3 5 9 10 13
10 3 0 -2 -8 -13 -19z m3115 -155 c-6 -32 -15 -55 -18 -51 -8 8 -3 142 6 170
14 44 25 -59 12 -119z m-1561 48 c-9 -10 -27 -14 -63 -12 -47 3 -51 5 -54 31
-3 25 -1 27 31 27 19 0 48 7 63 15 29 15 29 15 32 -16 2 -17 -2 -37 -9 -45z
m-142 34 c-3 -8 -6 -5 -6 6 -1 11 2 17 5 13 3 -3 4 -12 1 -19z m-469 -27 c2
-15 -3 -28 -12 -33 -9 -5 -16 -14 -16 -20 0 -7 6 -6 15 2 13 11 14 10 9 -4 -3
-9 -11 -16 -16 -16 -7 0 -6 -5 1 -13 6 -8 9 -16 6 -19 -3 -2 2 -5 10 -5 11 0
12 4 4 13 -6 7 -7 18 -4 25 5 7 13 -4 21 -27 16 -45 17 -54 5 -36 -7 11 -11
11 -23 -2 -14 -14 -19 -7 -47 63 -17 43 -31 83 -31 90 0 8 13 11 38 9 30 -2
38 -7 40 -27z m114 -61 l-22 -21 0 29 c0 37 10 46 29 27 13 -13 13 -17 -7 -35z
m166 10 c-1 -16 -5 -30 -9 -30 -11 0 -22 38 -14 50 12 20 24 10 23 -20z m162
-36 c0 -8 -4 -13 -8 -10 -5 3 -9 -1 -9 -9 0 -8 4 -12 8 -9 5 3 11 -6 15 -19 7
-30 54 -34 54 -4 0 9 5 17 10 17 6 0 10 5 10 11 0 5 -6 7 -12 3 -7 -4 -10 -4
-6 1 4 4 3 16 -3 26 -5 11 -7 19 -3 19 10 0 43 -44 44 -57 0 -7 8 -13 18 -13
26 -1 -27 -27 -76 -38 -33 -8 -42 -7 -46 5 -4 8 -3 20 1 26 3 7 2 8 -3 4 -5
-5 -9 -18 -9 -30 0 -16 -8 -23 -30 -28 -29 -6 -29 -7 -4 -8 25 -1 37 -18 43
-56 0 -5 10 -10 20 -10 11 0 21 -6 24 -13 2 -6 8 -12 13 -12 4 0 6 7 3 15 -4
8 -1 15 6 15 6 0 10 -8 8 -17 -3 -14 -13 -18 -49 -17 -44 2 -117 30 -106 41 9
8 -14 63 -24 57 -5 -3 -9 -4 -9 -2 0 2 -7 25 -15 51 -8 26 -10 45 -5 42 6 -4
10 1 10 9 0 12 5 14 25 6 26 -10 85 5 85 22 0 5 5 6 10 3 6 -3 10 -13 10 -21z
m357 -11 c15 -21 36 -46 46 -58 10 -11 24 -27 31 -35 7 -8 46 -64 87 -125 72
-107 87 -135 123 -240 10 -27 31 -85 47 -128 22 -59 29 -96 29 -148 0 -80 -13
-84 -29 -10 -15 70 -44 113 -168 249 -13 14 -23 28 -23 31 -1 20 -186 191
-207 191 -6 0 -16 6 -22 13 -6 8 -30 24 -53 36 -24 12 -52 29 -62 37 -20 14
-20 14 0 41 11 14 28 27 38 29 34 5 46 14 46 34 0 17 6 20 40 20 46 0 49 10
21 54 -38 58 13 65 56 9z m-1647 -13 c0 -5 -7 -10 -15 -10 -8 0 -15 5 -15 10
0 6 7 10 15 10 8 0 15 -4 15 -10z m1052 -20 c30 -9 37 -15 35 -33 -2 -19 2
-22 26 -19 23 3 30 -2 42 -31 8 -19 28 -46 45 -61 l31 -26 -26 -10 c-14 -5
-55 -10 -89 -10 -55 0 -64 -3 -69 -20 -6 -23 -29 -26 -49 -7 -7 7 -20 16 -29
19 -20 8 -30 83 -22 163 l6 57 30 -6 c17 -4 48 -11 69 -16z m1728 -26 c0 -55
-16 -50 -22 6 -2 28 0 40 9 40 9 0 13 -15 13 -46z m-62 18 c2 -7 -3 -12 -12
-12 -9 0 -16 7 -16 16 0 17 22 14 28 -4z m-1258 -8 c0 -2 -7 -4 -15 -4 -8 0
-15 4 -15 10 0 5 7 7 15 4 8 -4 15 -8 15 -10z m-339 -17 c-13 -13 -26 -3 -16
12 3 6 11 8 17 5 6 -4 6 -10 -1 -17z m-247 -14 c9 4 16 2 16 -2 0 -5 -6 -11
-12 -13 -10 -4 -10 -11 0 -34 9 -19 10 -30 3 -32 -6 -2 -11 -8 -11 -13 0 -6 4
-8 10 -4 6 3 5 -5 -1 -23 -5 -16 -9 -35 -7 -42 2 -7 -6 -14 -17 -16 -19 -3
-45 12 -45 26 0 8 38 23 52 21 11 -1 0 111 -12 123 -5 5 -10 15 -10 21 0 5 4
4 9 -4 5 -8 16 -11 25 -8z m582 -28 c-17 -35 -18 -36 -41 -21 -16 11 -26 12
-30 5 -4 -6 -4 -13 -1 -16 3 -4 6 -1 6 6 0 7 5 9 11 5 8 -4 7 -9 -2 -15 -7 -4
-10 -11 -6 -16 5 -4 12 -1 17 7 5 8 13 11 17 6 9 -9 -32 -46 -51 -46 -7 0 -6
4 3 9 10 7 11 13 2 30 -7 12 -16 19 -22 16 -5 -4 -9 4 -10 17 -1 21 -2 20 -11
-6 l-11 -29 -13 24 c-7 13 -13 27 -14 32 0 14 51 7 56 -8 4 -8 11 -15 16 -15
6 0 8 7 4 15 -6 16 28 39 47 31 7 -2 4 -5 -5 -5 -10 -1 -18 -5 -18 -11 0 -17
45 -6 53 14 4 10 10 16 14 13 3 -4 -2 -22 -11 -42z m1504 15 c0 -5 -7 -10 -15
-10 -8 0 -15 5 -15 10 0 6 7 10 15 10 8 0 15 -4 15 -10z m-2023 -98 c4 -26 0
-56 -10 -81 -10 -25 -13 -42 -7 -46 6 -3 10 -11 10 -17 0 -6 -7 -5 -16 3 -15
12 -16 11 -10 -9 6 -18 4 -22 -16 -22 -16 0 -30 12 -45 40 -29 49 -29 54 1 46
47 -12 80 60 57 125 -15 44 -14 47 10 23 11 -12 23 -40 26 -62z m253 58 c6
-11 8 -20 6 -20 -3 0 -10 9 -16 20 -6 11 -8 20 -6 20 3 0 10 -9 16 -20z m-977
-42 c-16 -18 -42 -51 -57 -73 -14 -22 -26 -33 -26 -25 0 28 82 130 104 130 5
0 -4 -15 -21 -32z m2852 -171 c-6 -153 -17 -225 -41 -271 -9 -17 -32 -62 -52
-101 -45 -89 -52 -66 -18 55 16 54 28 127 31 182 5 91 14 132 16 67 0 -30 1
-32 9 -12 13 33 40 190 41 243 l1 45 9 -35 c5 -19 6 -97 4 -173z m-2781 178
c-4 -8 -10 -12 -15 -9 -5 3 -5 -6 1 -20 7 -20 6 -26 -3 -26 -38 0 -71 -65 -40
-78 33 -14 83 -47 83 -54 0 -15 -42 -8 -67 12 -14 11 -32 20 -39 20 -7 0 -20
7 -28 16 -14 14 -14 19 4 54 26 52 64 87 107 99 1 1 0 -6 -3 -14z m561 5 c3
-5 -3 -10 -15 -10 -12 0 -18 5 -15 10 3 6 10 10 15 10 5 0 12 -4 15 -10z
m-723 -43 c-18 -18 -32 -37 -32 -42 0 -5 -14 -20 -31 -34 l-31 -26 36 -39 c39
-43 41 -54 6 -36 -14 7 -39 10 -62 6 -101 -16 -25 108 117 190 31 19 31 16 -3
-19z m703 13 c-3 -5 -11 -10 -16 -10 -6 0 -7 5 -4 10 3 6 11 10 16 10 6 0 7
-4 4 -10z m1872 -132 c-2 -29 -3 -8 -3 47 0 55 1 79 3 53 2 -26 2 -71 0 -100z
m-2727 61 c-22 -35 -46 -76 -53 -91 -19 -45 -26 -32 -11 19 20 66 85 155 102
139 1 -2 -16 -32 -38 -67z m1437 18 c-6 -16 -4 -33 5 -30 4 2 5 -4 1 -13 -5
-13 -8 -13 -15 -2 -7 9 -8 3 -4 -17 5 -23 4 -26 -4 -15 -9 13 -15 9 -40 -20
-25 -29 -31 -32 -40 -20 -5 8 -10 20 -10 27 0 6 -6 14 -12 16 -7 3 -2 6 13 6
30 1 99 61 100 87 0 11 3 14 6 6 3 -7 3 -18 0 -25z m-197 13 c0 -5 -12 -10
-26 -10 -14 0 -23 -4 -20 -8 2 -4 0 -14 -6 -22 -8 -12 -9 -12 -4 3 3 11 2 16
-4 12 -6 -3 -10 -15 -10 -26 0 -23 -6 -24 -26 -4 -24 24 -6 37 94 64 1 1 2 -3
2 -9z m116 -56 c-10 -25 -55 -17 -68 12 -10 22 -10 28 6 40 17 12 22 10 43
-12 13 -15 22 -33 19 -40z m37 47 c3 -11 3 -22 0 -24 -6 -7 -53 16 -53 26 0 4
10 3 22 -4 18 -10 20 -9 15 5 -4 9 -3 16 2 16 5 0 11 -9 14 -19z m115 3 c25
-11 32 -18 22 -22 -8 -3 -18 -10 -22 -16 -5 -8 -8 -7 -8 2 0 17 -17 15 -24 -4
-3 -8 -2 -12 3 -9 22 13 35 -39 15 -56 -8 -6 -14 -17 -14 -23 0 -6 7 -3 15 8
8 11 19 15 26 10 9 -5 7 -9 -7 -15 -14 -5 -25 -28 -39 -80 -11 -41 -20 -85
-20 -99 -1 -28 -34 -90 -48 -90 -4 0 -5 5 -2 10 3 6 1 10 -4 10 -6 0 -11 -6
-12 -12 0 -7 -4 -4 -9 7 -8 19 -9 19 -9 -2 -1 -13 5 -23 12 -23 8 0 14 -6 14
-13 0 -8 -10 -12 -26 -9 -21 3 -27 -1 -28 -17 -2 -19 0 -20 13 -6 20 19 25 19
18 0 -8 -19 -44 -40 -44 -25 0 5 -5 10 -10 10 -7 0 -7 -6 -1 -19 8 -14 5 -23
-14 -41 -21 -20 -23 -20 -20 -4 2 11 4 26 5 34 1 11 4 9 11 -5 8 -17 9 -16 6
8 -3 17 3 35 14 49 11 11 19 30 20 42 0 21 1 21 10 1 8 -18 9 -18 7 5 -2 28
17 106 32 132 6 10 10 26 10 35 1 17 1 17 11 0 12 -20 29 -14 29 11 0 13 -2
14 -9 4 -7 -11 -9 -10 -14 3 -4 9 -3 14 2 11 4 -3 8 8 9 24 0 17 9 56 18 88
10 31 17 61 15 65 -1 5 3 6 9 2 14 -9 13 8 -2 23 -16 16 -4 15 40 -4z m-224
-63 c12 -10 10 -16 -10 -38 -13 -14 -26 -24 -28 -22 -9 9 -9 76 -1 104 l9 30
8 -31 c4 -17 14 -37 22 -43z m-249 14 c-34 -16 -65 -19 -65 -7 0 17 14 22 54
21 l41 -1 -30 -13z m-650 -16 c16 -16 -30 -10 -51 7 -18 15 -18 15 11 9 17 -4
34 -11 40 -16z m405 -15 c0 -17 5 -24 20 -24 11 0 20 -4 20 -10 0 -16 -60 -12
-76 5 -12 11 -20 12 -36 4 -14 -8 -28 -7 -49 1 -46 19 -36 38 20 38 27 0 57 4
67 10 24 13 34 7 34 -24z m318 29 c-9 -2 -17 -12 -16 -21 0 -75 -6 -141 -13
-136 -5 3 -10 13 -11 22 -1 9 -4 -14 -8 -53 l-6 -70 -2 73 c-1 39 1 72 6 72 4
0 6 20 4 45 -5 61 2 75 35 74 16 -1 21 -3 11 -6z m67 -33 c3 -6 -1 -7 -9 -4
-18 7 -21 14 -7 14 6 0 13 -4 16 -10z m52 -15 c-4 -8 -2 -17 4 -21 6 -4 5 -12
-3 -22 -8 -9 1 -7 20 7 32 22 32 22 32 2 0 -11 -6 -38 -14 -58 -8 -21 -26 -78
-41 -128 -35 -119 -35 -118 -32 -60 1 28 -2 56 -6 63 -5 6 -5 18 0 25 4 6 6
20 5 30 -2 9 2 17 7 17 6 0 11 5 11 11 0 5 -4 7 -10 4 -5 -3 -10 -2 -10 4 0 5
4 12 9 16 6 3 9 27 9 53 -1 45 6 72 19 72 3 0 3 -7 0 -15z m363 5 c0 -5 -4
-10 -10 -10 -5 0 -10 5 -10 10 0 6 5 10 10 10 6 0 10 -4 10 -10z m-1001 -20
c12 0 21 -5 21 -11 0 -6 -7 -8 -16 -5 -9 3 -27 6 -40 6 -15 0 -24 6 -24 15 0
12 4 13 19 5 11 -5 29 -10 40 -10z m547 -27 c0 -21 4 -54 7 -73 5 -25 5 -30
-2 -15 -9 19 -10 19 -10 -2 -1 -12 4 -23 10 -25 7 -2 8 -14 1 -38 l-9 -35 -11
40 c-17 57 -16 185 1 185 8 0 13 -14 13 -37z m54 21 c0 -14 -3 -14 -15 -4 -8
7 -15 14 -15 16 0 2 7 4 15 4 8 0 15 -7 15 -16z m226 -11 c-12 -51 -28 -83
-39 -76 -6 4 -8 0 -4 -10 3 -10 2 -17 -4 -17 -6 0 -8 -4 -4 -9 8 -14 -33 -131
-55 -161 -20 -25 -20 -25 -15 105 3 72 11 143 17 159 l12 30 11 -27 11 -27 29
30 c36 37 49 38 41 3z m-446 -2 c0 -5 -7 -14 -15 -21 -16 -13 -45 -7 -45 9 0
8 10 12 53 20 4 0 7 -3 7 -8z m759 -76 c71 -97 94 -137 73 -126 -10 5 -24 17
-32 25 -7 9 -19 16 -26 16 -8 0 -14 4 -14 8 0 4 -13 16 -30 25 -29 18 -50 65
-50 116 0 24 0 24 21 5 12 -10 38 -41 58 -69z m-1084 60 c11 -2 28 -4 38 -4
23 -1 22 -24 -3 -46 -11 -10 -20 -25 -20 -33 0 -14 -59 -76 -67 -69 -2 2 8 28
23 57 30 60 25 70 -39 70 -40 0 -77 14 -77 29 0 8 99 5 145 -4z m2072 -27 c-3
-7 -5 -2 -5 12 0 14 2 19 5 13 2 -7 2 -19 0 -25z m-2491 7 c9 -22 -13 -44 -36
-38 -19 5 -27 33 -13 46 12 13 44 7 49 -8z m1384 -5 c8 -15 8 -20 -1 -20 -9 0
-8 -4 0 -14 7 -8 14 -25 15 -38 2 -13 7 -31 11 -41 4 -10 5 -38 2 -62 -2 -25
-1 -43 3 -40 8 5 30 -126 35 -210 l3 -60 -15 35 c-9 19 -16 50 -15 69 0 25 -2
30 -10 20 -7 -10 -8 -5 -6 18 3 19 0 30 -5 26 -6 -4 -7 4 -3 21 3 14 2 26 -3
26 -14 0 -33 132 -29 210 2 40 -1 72 -7 74 -5 3 -5 5 2 5 7 1 17 -8 23 -19z
m1230 -35 c0 -20 -6 -35 -15 -39 -12 -4 -15 3 -15 33 0 21 3 41 6 44 13 13 24
-5 24 -38z m-2427 1 c12 -3 40 -6 62 -6 56 0 74 -13 57 -40 -7 -11 -10 -25 -7
-31 4 -5 -1 -23 -9 -41 -20 -40 -21 -62 -1 -54 15 5 22 -9 8 -17 -21 -11 -60
-15 -72 -7 -12 7 -10 16 14 50 17 25 30 57 31 76 l1 34 -58 0 c-70 0 -89 7
-89 31 0 22 34 44 38 24 2 -7 13 -16 25 -19z m552 -34 c-3 -3 3 -14 12 -25 10
-11 13 -17 6 -14 -6 4 -13 4 -16 0 -2 -5 -3 -3 -1 2 1 6 -5 20 -13 30 -15 19
-15 18 -9 -13 3 -18 13 -40 21 -48 18 -19 20 -28 3 -18 -7 4 -10 4 -6 -1 4 -4
3 -17 -3 -29 -10 -20 -10 -20 5 -2 16 19 16 19 16 -2 0 -12 -4 -22 -10 -22 -5
0 -10 -6 -10 -12 1 -7 10 -2 20 11 18 21 20 21 20 5 0 -11 7 -37 15 -59 17
-48 19 -68 5 -60 -5 3 -10 17 -10 31 0 13 -4 24 -10 24 -5 0 -7 6 -4 14 3 8 1
17 -5 21 -16 9 -14 -10 6 -66 10 -27 23 -47 28 -45 14 5 20 -120 6 -128 -5 -3
-7 16 -6 47 3 38 1 46 -5 29 -5 -12 -7 -30 -4 -40 3 -9 -1 -6 -10 8 -8 14 -13
33 -10 43 3 9 1 17 -4 17 -5 0 -13 20 -17 45 -3 25 -15 71 -26 102 -27 80 -36
163 -18 173 13 9 44 -8 34 -18z m129 10 c2 -4 5 -30 7 -57 1 -28 5 -54 9 -60
4 -5 15 -34 26 -63 14 -40 15 -55 6 -64 -17 -17 -15 -33 3 -18 11 9 11 4 -3
-28 -9 -22 -17 -40 -18 -39 -7 10 -10 86 -4 82 17 -11 20 33 5 66 -15 32 -14
19 2 -33 4 -13 2 -19 -4 -15 -6 4 -21 50 -33 103 -19 81 -21 98 -9 105 10 6
10 9 2 9 -7 0 -13 5 -13 10 0 12 17 13 24 2z m-906 -23 c-2 -6 -8 -10 -13 -10
-5 0 -11 4 -13 10 -2 6 4 11 13 11 9 0 15 -5 13 -11z m85 -47 c9 -2 29 5 44
16 42 28 63 34 69 17 4 -9 -6 -25 -25 -41 -41 -34 -40 -48 4 -41 32 5 35 4 35
-19 0 -14 -9 -42 -20 -64 -11 -22 -20 -43 -20 -48 0 -6 9 -12 20 -15 30 -8 24
-27 -9 -27 -17 0 -33 -4 -36 -10 -10 -17 -25 -11 -25 10 0 11 11 45 25 76 14
31 25 60 25 64 0 4 -22 10 -50 14 -31 4 -50 12 -50 20 0 7 -7 13 -15 13 -8 0
-12 -3 -10 -7 3 -4 -19 -27 -47 -51 -28 -24 -82 -75 -120 -113 -37 -38 -68
-64 -68 -58 0 6 6 15 13 19 7 4 29 31 49 58 20 28 57 68 83 90 72 61 74 63 68
85 -3 11 3 32 13 47 l18 28 6 -30 c3 -17 12 -31 23 -33z m767 22 c0 -8 -4 -12
-10 -9 -5 3 -10 10 -10 16 0 5 5 9 10 9 6 0 10 -7 10 -16z m778 -9 c-3 -3 -9
2 -12 12 -6 14 -5 15 5 6 7 -7 10 -15 7 -18z m-28 -81 c34 -37 71 -87 83 -113
12 -25 25 -48 28 -51 3 -3 3 -16 -1 -30 -5 -23 -10 -19 -55 50 -27 41 -77 103
-112 138 -69 69 -86 112 -34 86 16 -8 57 -44 91 -80z m-1187 28 l32 -17 -33
-3 c-44 -4 -62 3 -62 26 0 25 24 49 28 27 2 -8 18 -23 35 -33z m552 -2 c-9
-41 -17 -33 -9 9 4 17 9 30 11 27 3 -2 2 -19 -2 -36z m693 4 c-4 -3 -12 5 -18
18 -12 22 -12 22 6 6 10 -10 15 -20 12 -24z m1139 -16 c-3 -7 -5 -2 -5 12 0
14 2 19 5 13 2 -7 2 -19 0 -25z m-2188 -63 c-25 -62 -39 -70 -39 -24 0 31 51
111 58 90 2 -6 -6 -36 -19 -66z m131 50 c0 -7 -20 -38 -45 -69 -26 -31 -60
-85 -76 -121 -17 -36 -35 -62 -41 -59 -6 4 -14 0 -19 -7 -13 -20 -11 -31 4
-23 11 7 -10 -24 -24 -36 -4 -3 -9 -14 -12 -25 -4 -19 -5 -19 -6 2 0 12 6 28
14 36 8 8 12 17 9 20 -10 9 20 58 33 53 15 -6 18 10 4 18 -5 3 -7 15 -4 27 4
16 8 17 14 7 6 -9 9 -3 9 17 0 34 34 90 88 147 34 36 52 41 52 13z m614 8 c3
-10 8 -36 11 -58 4 -22 13 -62 21 -89 8 -27 17 -83 20 -126 l7 -76 -48 -85
c-60 -105 -128 -209 -133 -204 -11 10 -12 143 -2 250 11 121 38 250 65 315 8
19 19 47 25 63 11 31 26 35 34 10z m1556 -7 c0 -8 -4 -17 -9 -21 -12 -7 -24
12 -16 25 9 15 25 12 25 -4z m-1925 -104 c-7 -7 -21 83 -16 98 3 8 9 -10 12
-40 4 -30 6 -56 4 -58z m1719 -55 c4 -21 14 -41 22 -44 17 -6 19 -34 3 -50 -7
-7 -3 -12 15 -17 33 -8 35 -41 4 -57 -13 -7 -29 -20 -35 -29 -8 -11 -33 -20
-70 -25 -32 -4 -87 -13 -122 -21 -38 -9 -68 -11 -73 -6 -5 5 6 31 28 63 47 70
84 153 91 206 6 42 17 55 26 31 2 -7 9 3 15 22 l10 35 1 -48 c1 -64 18 -51 27
21 l7 57 22 -50 c12 -27 25 -67 29 -88z m-925 58 c35 -62 59 -122 71 -180 14
-66 3 -52 -21 26 -12 41 -37 104 -56 142 -40 81 -37 88 6 12z m-54 8 c41 -43
72 -112 82 -181 12 -74 7 -73 -19 4 -11 31 -30 73 -44 93 -13 19 -24 43 -24
51 0 9 -7 26 -16 38 -21 30 -10 28 21 -5z m-205 -29 c0 -15 4 -23 10 -19 6 4
7 11 4 17 -4 7 -2 8 5 4 6 -4 9 -12 5 -17 -3 -6 -9 -22 -13 -37 -6 -22 -9 -17
-17 31 -6 31 -7 54 -2 51 4 -3 8 -16 8 -30z m-741 -74 c16 -100 52 -169 96
-183 17 -6 33 -15 37 -21 5 -7 8 -5 8 6 0 24 19 33 27 12 4 -10 0 -21 -9 -28
-13 -9 -19 -59 -32 -246 -9 -129 -16 -240 -16 -247 0 -20 -99 48 -141 97 -59
68 -96 154 -115 261 -25 145 0 263 83 395 16 24 33 42 38 40 6 -1 16 -40 24
-86z m-685 27 c-3 -10 2 -27 12 -38 16 -18 16 -19 -9 -19 -35 0 -42 15 -27 61
9 27 16 36 21 27 5 -7 6 -21 3 -31z m882 1 c-3 -18 -6 -59 -7 -90 -1 -34 -6
-55 -12 -51 -5 3 -8 0 -6 -6 12 -34 24 -8 27 54 2 39 8 75 13 80 7 7 8 1 4
-16 -4 -16 -2 -30 4 -33 15 -10 14 -56 -1 -56 -9 0 -9 -3 1 -9 11 -7 10 -13
-8 -32 -16 -17 -18 -25 -9 -29 19 -8 22 -74 4 -109 -20 -39 -21 -110 -1 -117
17 -7 15 -59 -4 -89 -12 -19 -12 -18 -6 5 12 46 13 70 4 70 -5 0 -9 -10 -9
-22 0 -19 -2 -20 -11 -8 -7 11 -8 4 -4 -25 4 -28 3 -34 -4 -20 -8 20 -5 186 5
235 5 24 6 24 20 6 13 -19 14 -18 14 12 0 18 -4 32 -8 32 -5 0 -16 17 -25 38
-20 44 -19 163 1 170 6 2 12 12 12 23 0 10 3 19 6 19 3 0 4 -15 0 -32z m604
-20 c0 -6 -7 -5 -15 2 -8 7 -15 8 -15 2 0 -13 25 -33 33 -26 3 3 10 -3 15 -13
7 -13 6 -24 -3 -36 -7 -10 -15 -14 -17 -10 -3 4 -3 2 -2 -4 2 -7 0 -23 -5 -35
-7 -20 -9 -18 -9 14 0 20 -6 52 -13 71 -15 43 -6 75 16 57 8 -7 15 -17 15 -22z
m-1820 13 c0 -5 -6 -16 -12 -23 -27 -28 -76 -96 -118 -161 -23 -37 -45 -66
-47 -64 -2 2 15 33 37 68 22 35 43 71 47 79 3 8 12 22 20 30 7 8 25 30 39 48
27 33 34 38 34 23z m1373 -47 c-27 -25 -41 -43 -33 -42 8 2 19 8 25 14 5 5 24
16 40 22 28 11 28 11 11 -3 -11 -8 -24 -15 -29 -15 -11 0 -36 -30 -37 -44 0
-4 7 -6 15 -3 8 4 17 2 20 -3 4 -6 11 -10 16 -10 6 0 7 6 3 13 -5 8 -2 8 9 -2
20 -16 21 -17 5 -19 -7 -1 -26 -4 -43 -6 -27 -5 -28 -5 -5 3 24 9 24 9 -7 10
-26 1 -31 4 -26 19 5 14 3 15 -8 5 -9 -9 -10 -16 -3 -23 6 -6 9 -24 6 -40 -7
-51 -17 -33 -17 31 1 42 5 63 15 69 11 7 11 10 2 10 -18 0 -35 -50 -28 -83 4
-18 -1 -42 -14 -67 -26 -51 -25 -57 4 -23 13 15 28 24 32 20 5 -4 3 -12 -4
-16 -7 -4 -12 -14 -10 -22 2 -8 -3 -13 -9 -12 -16 4 -16 3 1 -38 13 -30 14
-31 21 -10 l7 22 16 -23 c28 -39 54 -89 49 -95 -3 -3 -17 18 -31 46 -15 28
-29 51 -32 51 -3 0 -2 -5 2 -11 3 -6 0 -16 -7 -21 -11 -8 -10 -9 3 -5 14 5 16
0 11 -27 -4 -23 0 -36 13 -46 16 -14 17 -13 10 5 -5 11 -10 29 -13 40 -4 19
-4 19 7 2 10 -15 16 -43 19 -81 1 -5 9 -2 19 7 17 16 19 16 19 0 -1 -59 4 -84
14 -77 8 4 8 0 0 -15 -13 -24 -26 -29 -18 -6 4 8 2 17 -3 20 -6 4 -7 17 -4 30
3 12 1 26 -5 29 -7 5 -10 -1 -8 -16 1 -14 -3 -22 -10 -20 -20 3 -15 -14 7 -24
14 -7 17 -13 10 -24 -8 -13 -10 -13 -10 1 0 9 -6 19 -14 22 -17 7 -30 57 -18
69 7 7 3 17 -9 29 -10 10 -19 30 -19 44 0 14 -4 25 -10 25 -13 0 -13 -12 0
-44 6 -16 6 -27 0 -31 -6 -4 -10 -12 -10 -18 0 -7 5 -4 11 6 10 17 29 15 29
-4 0 -6 -4 -8 -9 -4 -6 3 -14 -3 -20 -12 -8 -15 -11 -15 -12 -3 -4 23 -6 52
-8 85 -1 23 -3 27 -11 15 -6 -9 -10 -10 -10 -3 0 6 -3 20 -6 30 -6 15 -4 16 7
6 7 -7 17 -13 23 -13 5 0 -2 9 -15 20 -26 23 -32 76 -22 188 5 57 9 64 35 78
16 8 33 12 38 9 6 -3 10 4 10 17 0 17 3 19 9 9 7 -11 10 -11 17 0 5 8 9 17 10
22 1 4 2 9 3 12 0 2 8 2 16 -1 12 -5 4 -17 -32 -50z m-1347 -12 c-17 -16 -18
-16 -5 5 7 12 15 20 18 17 3 -2 -3 -12 -13 -22z m1964 -12 c0 -10 7 -34 15
-53 10 -23 15 -69 15 -128 0 -80 -2 -90 -15 -79 -18 15 -21 121 -4 148 12 19
-4 77 -19 68 -5 -3 -6 8 -4 25 3 17 0 29 -7 29 -6 0 -11 4 -11 10 0 5 7 7 15
4 8 -4 15 -14 15 -24z m-197 -73 c5 -57 14 -87 28 -87 5 0 9 7 9 15 0 8 -7 15
-16 15 -12 0 -14 3 -6 13 6 6 13 29 17 49 4 21 13 42 21 49 8 6 14 10 15 8 0
-2 2 -11 4 -19 1 -8 11 -42 20 -74 l17 -59 -23 -19 -24 -20 28 6 c16 4 27 2
27 -4 0 -6 -4 -9 -8 -6 -5 3 -9 -12 -10 -32 -1 -62 -3 -71 -13 -77 -5 -4 -9 4
-10 17 -1 18 -3 16 -10 -9 -12 -41 -24 -43 -15 -3 3 17 1 30 -4 30 -6 0 -10
-11 -10 -25 0 -14 -4 -25 -9 -25 -6 0 -9 10 -9 23 3 50 -2 88 -12 82 -5 -3
-10 0 -11 7 -1 15 -37 -80 -38 -100 -1 -7 4 -10 9 -7 6 3 11 16 11 28 1 17 3
15 9 -8 6 -23 8 -25 9 -8 0 12 6 25 12 29 11 7 11 4 -4 -58 -2 -7 -2 -9 1 -4
2 4 8 2 13 -5 7 -11 9 -11 9 -1 0 7 4 11 9 7 5 -3 8 -22 5 -43 -3 -27 -2 -31
4 -13 4 14 13 26 20 29 16 5 15 -9 -3 -46 -13 -26 -20 -30 -48 -27 -17 2 -24
1 -14 -1 28 -9 20 -24 -13 -24 -16 0 -31 -4 -31 -10 -1 -5 -2 -16 -3 -22 -1
-7 -5 -16 -9 -19 -5 -3 -1 -9 8 -12 10 -5 14 -3 9 5 -4 7 -3 8 4 4 8 -5 11 1
9 16 -1 17 3 23 18 23 11 0 25 7 32 15 8 10 12 11 13 3 0 -6 -10 -19 -22 -28
-13 -8 -23 -19 -23 -23 0 -4 -9 -16 -21 -28 -19 -19 -22 -19 -33 -5 -11 14
-11 14 -7 -2 6 -20 -20 -55 -49 -66 -11 -5 -33 -2 -53 6 -18 7 -37 11 -42 8
-6 -4 -7 1 -3 11 5 13 -4 10 -31 -11 -45 -34 -52 -28 -67 49 -8 47 -8 61 2 67
8 4 18 4 25 -1 12 -11 43 18 64 60 7 14 34 56 59 94 60 90 87 135 101 166 6
14 19 41 30 61 15 28 19 48 15 85 -4 38 -3 44 4 26 6 -12 12 -46 14 -75z m194
-19 c-3 -8 -6 -5 -6 6 -1 11 2 17 5 13 3 -3 4 -12 1 -19z m-1195 -20 c-8 -8
-9 -4 -5 13 4 13 8 18 11 10 2 -7 -1 -18 -6 -23z m638 22 c0 -5 -2 -10 -4 -10
-3 0 -8 5 -11 10 -3 6 -1 10 4 10 6 0 11 -4 11 -10z m-35 -20 c34 -13 62 -40
43 -41 -7 0 -4 -4 7 -9 18 -8 17 -9 -7 -9 -16 -1 -36 8 -49 22 -12 12 -19 16
-15 10 9 -16 -6 -17 -22 -1 -31 31 -7 47 43 28z m-629 -56 c-4 -20 -10 -34
-12 -31 -3 3 -2 21 2 41 3 21 9 35 11 32 3 -3 2 -21 -1 -42z m908 -22 c-4 -9
-6 -20 -6 -24 1 -5 -3 -8 -10 -8 -6 0 -9 -3 -6 -6 10 -9 -21 -75 -55 -119 -34
-45 -53 -66 -44 -49 3 6 0 11 -7 11 -8 0 -12 -7 -8 -15 3 -10 1 -13 -6 -8 -14
8 -16 36 -3 36 5 0 12 10 16 23 l8 22 4 -23 c7 -35 32 -3 26 34 -5 28 -5 28
10 9 15 -20 16 -19 27 10 7 17 13 46 15 65 3 46 15 71 28 63 6 -3 7 -1 3 5 -4
7 -4 18 1 25 11 16 17 -28 7 -51z m-288 -33 c0 -24 -2 -26 -18 -18 -10 5 -18
14 -18 19 0 14 -27 12 -33 -2 -3 -8 -6 -6 -6 5 -1 22 27 22 51 0 19 -17 26 -5
8 13 -7 7 -6 11 3 11 8 0 13 -11 13 -28z m-609 -1 c-3 -8 -6 -5 -6 6 -1 11 2
17 5 13 3 -3 4 -12 1 -19z m643 13 c0 -6 -4 -13 -10 -16 -5 -3 -10 1 -10 9 0
9 5 16 10 16 6 0 10 -4 10 -9z m810 -22 c0 -5 -5 -9 -11 -9 -5 0 -7 -4 -4 -10
3 -5 1 -18 -5 -27 -11 -17 -11 -17 -6 0 4 11 2 16 -5 11 -6 -3 -9 -15 -6 -25
3 -10 1 -22 -4 -25 -5 -3 -20 -27 -33 -53 -14 -26 -31 -53 -40 -60 -9 -7 -14
-17 -11 -21 2 -4 -6 -17 -20 -30 -22 -21 -25 -57 -2 -43 6 4 7 1 2 -6 -5 -9
-11 -9 -17 -3 -6 6 -17 8 -26 4 -12 -4 -14 -1 -8 14 16 40 56 185 62 225 4 24
17 53 29 65 20 20 27 21 64 12 22 -6 41 -14 41 -19z m-985 -21 c-2 -18 -3 -39
-4 -45 -2 -25 -19 -12 -19 15 0 24 13 62 22 62 2 0 2 -15 1 -32z m-1453 -109
c-32 -63 -69 -148 -81 -189 -13 -41 -34 -109 -47 -150 -13 -41 -24 -84 -24
-94 0 -11 -3 -17 -6 -13 -17 16 -4 101 21 137 19 28 24 44 19 68 -12 58 41
179 149 339 43 64 27 13 -31 -98z m960 109 c-7 -7 -12 -8 -12 -2 0 6 3 14 7
17 3 4 9 5 12 2 2 -3 -1 -11 -7 -17z m1306 -63 c-5 -76 -11 -94 -58 -190 -53
-108 -80 -141 -220 -270 -88 -82 -128 -110 -175 -125 -22 -7 -34 -15 -28 -17
8 -3 11 -14 7 -30 -4 -16 -2 -28 7 -34 10 -6 8 -10 -11 -17 -14 -6 -28 -7 -31
-3 -8 8 -29 128 -29 167 0 34 40 64 84 64 14 0 26 5 26 11 0 6 7 8 16 5 16 -6
52 13 50 26 -1 7 64 58 73 58 3 -1 -7 -12 -24 -25 -16 -14 -25 -25 -19 -25 6
0 26 14 44 30 18 17 37 30 41 30 4 0 10 11 13 25 4 14 12 22 19 20 19 -7 105
72 129 119 30 59 78 205 78 238 0 15 3 28 6 28 4 0 4 -38 2 -85z m404 67 c54
-5 100 -11 104 -14 13 -13 -8 -46 -36 -58 -16 -6 -31 -18 -34 -26 -3 -8 -12
-14 -21 -14 -8 0 -15 -4 -15 -10 0 -19 25 -10 44 15 10 14 23 25 29 25 5 0 -2
-15 -17 -34 -14 -19 -26 -39 -26 -44 0 -4 -10 -18 -22 -29 -13 -11 -30 -29
-38 -41 -10 -16 -16 -18 -23 -9 -6 8 -7 4 -4 -10 3 -12 -1 -27 -9 -34 -8 -6
-11 -16 -7 -22 3 -5 1 -7 -4 -4 -7 5 -6 19 3 44 18 53 18 74 -2 48 -15 -20
-16 -19 -12 5 3 26 33 60 52 60 6 -1 0 -10 -13 -20 -20 -18 -20 -24 0 -22 4 1
5 -9 2 -21 -4 -18 2 -14 31 17 20 22 36 44 36 50 0 6 -7 3 -14 -6 -7 -10 -17
-18 -22 -18 -4 0 -3 5 4 12 15 15 16 32 1 22 -8 -4 -9 0 -4 15 10 33 -22 39
-50 8 -13 -13 -21 -27 -19 -30 3 -3 -4 -15 -17 -28 -19 -19 -25 -20 -42 -10
-16 10 -21 10 -28 -1 -5 -7 -7 -19 -4 -26 3 -7 1 -10 -4 -7 -5 3 -17 -5 -26
-17 l-16 -23 -21 25 -21 25 7 -25 c7 -24 6 -24 -8 -6 -9 11 -16 15 -16 10 0
-6 -9 -20 -20 -32 -17 -18 -18 -22 -5 -22 8 0 15 5 15 10 0 6 7 10 15 10 11 0
14 -7 9 -25 -8 -31 3 -32 33 -3 28 26 40 17 24 -18 -10 -22 -9 -30 4 -44 18
-20 19 -30 2 -30 -14 0 -57 -52 -57 -70 0 -14 58 16 89 46 13 14 21 30 17 39
-3 8 -1 15 4 15 6 0 10 -11 10 -25 0 -14 4 -25 9 -25 17 0 41 31 35 43 -5 8
-2 8 7 0 17 -17 32 -16 26 1 -4 9 0 12 11 9 11 -2 34 13 61 41 36 36 40 45 24
43 -14 -1 -19 -6 -15 -16 3 -9 1 -12 -6 -7 -7 4 -12 2 -12 -3 0 -6 -5 -11 -11
-11 -6 0 -1 14 11 31 12 16 25 28 28 25 3 -3 11 2 18 12 11 15 12 12 9 -23 -2
-22 -5 -47 -7 -55 -1 -8 3 -15 11 -15 8 0 15 6 17 13 1 7 0 8 -3 2 -9 -18 -21
-11 -16 10 3 11 9 17 14 14 5 -3 6 2 3 10 -6 17 25 65 42 66 19 0 23 24 8 51
-7 13 -13 20 -14 16 0 -5 5 -18 11 -29 7 -13 7 -18 1 -14 -6 3 -13 2 -17 -4
-8 -13 -25 -13 -25 0 0 6 7 10 14 10 12 0 13 6 4 30 -8 25 -7 34 5 48 9 10 23
34 32 55 l15 37 113 0 c61 0 138 6 170 14 38 9 60 10 64 3 3 -5 -2 -14 -11
-19 -10 -5 -16 -22 -16 -42 0 -18 -7 -41 -15 -52 -13 -18 -14 -16 -15 21 -1
24 -12 -17 -26 -100 -25 -144 -65 -277 -96 -317 l-17 -23 6 25 c3 14 10 30 14
36 7 9 25 69 50 164 5 19 9 51 9 70 0 32 -1 33 -14 15 -7 -11 -25 -42 -40 -70
-14 -27 -26 -44 -26 -37 0 6 -4 12 -10 12 -14 0 -12 -28 3 -33 19 -6 11 -86
-12 -132 -12 -21 -21 -46 -21 -54 0 -11 -3 -12 -11 -4 -8 8 -7 26 5 66 27 93
18 123 -22 72 l-20 -26 -7 22 -7 22 -14 -24 -13 -24 -1 30 c-1 24 -6 16 -27
-40 -32 -88 -83 -192 -100 -207 -7 -6 -13 -16 -13 -22 0 -7 -31 -46 -70 -87
-52 -55 -67 -67 -60 -46 9 25 8 27 -8 18 -10 -6 -24 -17 -32 -25 -15 -20 -40
-21 -40 -3 0 8 -10 26 -23 41 -17 19 -29 25 -43 20 -18 -7 -18 -6 -3 12 9 10
20 26 24 34 7 12 5 12 -11 -1 -10 -9 -25 -20 -33 -24 -18 -10 -7 9 23 44 l21
24 -27 -18 c-26 -16 -28 -16 -28 -1 0 9 8 29 17 44 l17 27 -27 -24 c-36 -33
-34 -14 4 32 42 51 23 47 -23 -5 -52 -59 -47 -35 7 40 l46 63 -58 -30 c-73
-37 -109 -48 -98 -31 6 10 -7 12 -54 8 l-63 -4 24 19 23 19 -54 -6 c-53 -5
-73 -17 -145 -80 -16 -14 -36 -26 -45 -26 -9 0 0 11 22 27 20 14 35 28 32 31
-3 3 -13 -2 -23 -11 -10 -10 -24 -17 -30 -17 -6 0 11 20 37 45 26 25 51 45 55
45 4 0 34 18 67 40 33 22 70 40 82 41 12 0 16 3 9 6 -10 4 -9 9 4 24 9 10 21
16 25 13 5 -3 9 0 9 7 0 7 2 10 5 7 12 -11 -7 -37 -23 -31 -14 5 -15 4 -4 -8
11 -12 15 -11 27 5 28 37 63 74 76 78 7 2 14 16 14 30 2 29 43 104 52 94 4 -4
13 4 20 16 13 22 14 22 8 1 -3 -12 -2 -24 4 -27 10 -6 57 81 48 90 -3 3 -10
-11 -17 -31 -7 -20 -14 -34 -16 -32 -3 2 0 17 6 32 7 20 8 31 0 39 -7 7 -10 1
-10 -18 0 -15 -4 -25 -9 -21 -6 3 -14 -3 -20 -12 -6 -10 -10 -13 -11 -8 0 6 9
23 19 39 11 17 18 34 15 38 -3 5 2 34 12 64 l17 56 56 -6 c31 -4 100 -10 153
-14z m-1682 -49 c0 -35 -3 -44 -10 -33 -16 25 -12 -9 5 -45 13 -26 14 -26 9
-5 -4 19 -3 22 5 10 6 -8 8 -22 6 -30 -6 -20 59 -121 125 -194 53 -57 135
-118 178 -131 18 -5 22 -13 22 -49 0 -24 -3 -64 -6 -89 -6 -44 -8 -46 -33 -41
-35 8 -132 66 -138 82 -3 7 3 19 13 27 18 14 18 16 2 29 -10 7 -18 18 -18 24
0 7 7 9 18 5 10 -4 4 7 -15 25 -22 22 -41 32 -62 32 -24 0 -34 7 -46 30 -11
21 -13 36 -6 48 7 13 -2 40 -34 107 -32 65 -45 107 -49 152 -5 52 -3 61 9 57
10 -4 15 0 15 15 0 12 2 21 5 21 3 0 5 -21 5 -47z m1020 27 c0 -5 -4 -10 -10
-10 -5 0 -10 5 -10 10 0 6 5 10 10 10 6 0 10 -4 10 -10z m205 -51 c5 -8 4 -10
-3 -5 -7 4 -12 5 -12 2 0 -2 -3 -12 -7 -22 -5 -13 -3 -15 7 -9 9 6 11 4 5 -4
-12 -21 -29 4 -17 26 6 10 8 32 6 48 -4 30 -4 30 5 3 5 -14 12 -32 16 -39z
m-585 44 c0 -5 -4 -14 -9 -21 -7 -11 -9 -11 -14 1 -3 8 -3 18 0 21 9 8 23 7
23 -1z m1560 -66 c0 -45 -18 -122 -26 -114 -3 3 -2 42 2 86 7 83 24 103 24 28z
m22 -19 c-10 -22 -11 -21 -11 12 -1 26 2 31 11 22 8 -8 8 -17 0 -34z m-1135
10 c-3 -8 -6 -5 -6 6 -1 11 2 17 5 13 3 -3 4 -12 1 -19z m-577 -64 c0 -46 -3
-64 -12 -64 -4 0 -8 -7 -8 -15 0 -8 5 -15 10 -15 6 0 10 7 10 15 0 8 4 15 10
15 5 0 7 7 3 16 -4 12 -2 15 8 12 8 -3 15 -10 15 -16 1 -7 2 -16 3 -22 0 -5 7
-10 15 -10 8 0 21 -8 28 -18 7 -10 21 -21 30 -25 11 -4 15 -13 11 -28 l-6 -23
-10 21 c-13 29 -33 36 -52 17 -8 -9 -15 -12 -15 -7 -1 28 -77 66 -77 38 0 -7
9 -10 21 -7 21 4 21 4 1 -11 -22 -17 -21 -14 -23 -110 -1 -43 -6 -66 -12 -62
-8 5 -8 248 0 285 0 3 7 -3 14 -13 12 -15 15 -16 26 -2 11 13 10 14 -2 10 -18
-7 -28 21 -21 59 5 26 6 26 19 8 7 -11 14 -33 14 -48z m1150 60 c0 -10 -28
-34 -41 -34 -8 0 -5 7 6 20 17 19 35 26 35 14z m-447 -39 c-3 -9 -8 -14 -10
-11 -3 3 -2 9 2 15 9 16 15 13 8 -4z m-662 -28 c-10 -9 -11 -8 -5 6 3 10 9 15
12 12 3 -3 0 -11 -7 -18z m191 -40 c-4 -15 -7 -15 -29 8 -17 16 -23 31 -19 42
6 15 9 14 30 -8 12 -13 21 -32 18 -42z m636 43 c-7 -10 -14 -17 -17 -15 -4 4
18 35 25 35 2 0 -1 -9 -8 -20z m379 -5 c-7 -14 -16 -25 -20 -25 -8 0 -2 14 16
38 15 19 16 14 4 -13z m-564 0 c8 -19 -12 -30 -26 -16 -9 9 -7 10 8 5 18 -7
18 -6 6 9 -7 9 -9 17 -3 17 5 0 12 -7 15 -15z m153 -30 c0 -13 -2 -22 -5 -20
-2 3 -10 -3 -18 -13 -12 -15 -13 -14 -1 8 7 14 13 28 14 33 3 15 4 17 7 17 2
0 3 -11 3 -25z m-756 -20 c7 -8 9 -15 6 -15 -4 0 -14 7 -22 15 -9 8 -11 15 -6
15 5 0 15 -7 22 -15z m584 -13 c-6 -4 -16 -17 -23 -29 -7 -14 -17 -20 -26 -16
-12 4 -13 8 -4 19 7 8 14 12 17 9 3 -3 12 4 20 16 8 11 17 18 20 14 4 -3 2 -9
-4 -13z m336 -8 c0 -8 -4 -12 -10 -9 -5 3 -10 1 -10 -4 0 -6 5 -11 12 -11 6 0
8 -3 5 -6 -4 -4 -13 -1 -21 5 -12 10 -13 16 -3 26 16 19 27 18 27 -1z m-65
-34 c-10 -11 -20 -18 -23 -16 -5 6 21 35 32 36 5 0 1 -9 -9 -20z m-320 -31 c0
-8 -6 -14 -13 -14 -8 0 -20 -8 -27 -18 -8 -12 -16 -14 -20 -8 -3 6 -1 11 5 11
6 0 16 11 22 25 12 26 33 29 33 4z m148 4 c-4 -10 -9 -10 -18 -3 -6 5 -16 6
-20 2 -5 -4 -6 -2 -2 3 8 16 46 13 40 -2z m231 -17 c-2 -19 0 -38 6 -41 15 -9
12 -22 -4 -22 -8 0 -12 6 -9 12 2 7 -3 20 -12 29 -15 14 -15 16 -1 16 9 0 16
5 16 11 0 5 -4 7 -10 4 -11 -7 -14 8 -3 18 15 15 21 5 17 -27z m-959 -17 c19
-36 29 -119 14 -119 -5 0 -7 5 -4 10 3 6 0 10 -9 10 -8 0 -23 3 -33 6 -16 5
-16 4 2 -11 l20 -17 -20 4 c-17 3 -20 12 -23 60 -3 58 11 103 29 93 5 -4 16
-20 24 -36z m1120 23 c-3 -3 -11 0 -18 7 -9 10 -8 11 6 5 10 -3 15 -9 12 -12z
m-1060 -12 c3 -11 13 -20 21 -20 9 0 14 -10 14 -29 0 -30 -19 -95 -26 -88 -3
2 0 16 5 29 8 21 7 25 -6 24 -17 -1 -48 67 -39 89 8 21 24 19 31 -5z m645 1
c0 -5 -7 -12 -16 -15 -14 -5 -15 -4 -4 9 14 17 20 19 20 6z m50 -21 c0 -5 -5
-10 -11 -10 -5 0 -7 5 -4 10 3 6 8 10 11 10 2 0 4 -4 4 -10z m262 -22 c-7 -7
-12 -8 -12 -2 0 14 12 26 19 19 2 -3 -1 -11 -7 -17z m-752 -9 c0 -5 10 -14 23
-19 l22 -9 -22 0 c-13 -1 -23 -6 -23 -12 0 -5 -5 -7 -10 -4 -8 5 -8 11 0 20
19 23 -21 28 -42 5 -22 -24 -35 -26 -35 -5 0 9 5 14 11 12 5 -2 18 5 28 15 17
17 48 15 48 -3z m49 -3 c10 -12 8 -13 -8 -9 -12 3 -21 9 -21 14 0 14 16 11 29
-5z m163 -18 c-7 -7 -12 -8 -12 -2 0 14 12 26 19 19 2 -3 -1 -11 -7 -17z m162
3 c-10 -10 -21 -16 -24 -14 -3 3 4 11 14 19 28 20 33 17 10 -5z m-1590 -265
c7 -28 17 -69 21 -91 3 -22 8 -49 11 -60 2 -11 -7 4 -21 33 -33 71 -58 241
-48 330 l8 67 7 -114 c4 -62 14 -136 22 -165z m1196 264 c0 -5 -4 -10 -10 -10
-5 0 -10 5 -10 10 0 6 5 10 10 10 6 0 10 -4 10 -10z m698 -10 c3 -7 0 -10 -7
-6 -6 4 -11 2 -11 -4 0 -6 -4 -9 -9 -6 -5 4 -12 0 -14 -6 -4 -10 -6 -10 -6 0
-1 7 6 15 14 18 8 4 12 11 9 16 -4 6 -1 9 6 6 8 -2 16 -10 18 -18z m-708 -21
c0 -4 -7 -9 -15 -13 -9 -3 -15 0 -15 8 0 7 7 13 15 13 8 0 15 -4 15 -8z m-413
-36 c-3 -10 -5 -4 -5 12 0 17 2 24 5 18 2 -7 2 -21 0 -30z m1483 -1 c0 -5 -9
-17 -20 -27 -22 -20 -26 -14 -10 16 11 19 30 26 30 11z m-1200 -12 c0 -5 -6
-10 -12 -11 -10 0 -10 -2 0 -6 14 -5 14 -46 1 -83 -8 -22 -8 -21 -4 8 3 18 1
31 -3 28 -9 -6 -15 51 -7 65 8 12 25 12 25 -1z m1208 -55 c-7 -21 -23 -45 -36
-53 -21 -14 -22 -13 -16 4 4 11 15 30 24 44 10 14 21 36 26 50 5 17 9 20 11 9
2 -8 -2 -32 -9 -54z m208 28 c-10 -10 -19 5 -10 18 6 11 8 11 12 0 2 -7 1 -15
-2 -18z m-1516 -39 c12 -12 8 -14 -28 -14 -35 0 -42 3 -42 20 0 17 4 19 28 14
15 -4 34 -13 42 -20z m1650 -14 c-16 -31 -23 -19 -9 16 6 16 13 24 16 17 2 -7
-1 -22 -7 -33z m-250 -88 c-33 -60 -60 -116 -60 -122 0 -19 28 8 58 55 20 31
27 36 30 22 2 -10 -2 -25 -8 -33 -7 -8 -20 -29 -30 -47 -11 -20 -25 -32 -38
-32 -12 0 -32 -11 -45 -23 -26 -25 -42 -19 -26 9 7 14 6 19 -2 19 -8 0 -7 6 3
18 8 9 18 24 22 32 16 36 147 220 154 215 1 -1 -25 -52 -58 -113z m101 33
c-10 -70 -38 -136 -58 -143 -8 -2 -3 19 12 55 16 40 20 62 13 70 -11 14 2 63
24 87 19 20 21 5 9 -69z m-1363 -12 c0 -38 4 -90 9 -118 5 -27 6 -77 2 -110
l-6 -60 -3 50 c-4 66 -6 77 -13 95 -8 20 -37 131 -37 144 0 5 3 6 7 3 8 -9 32
24 33 46 0 9 2 17 5 17 2 0 4 -30 3 -67z m-94 40 c3 -10 6 -40 8 -68 l2 -50
-42 -3 c-33 -2 -42 0 -42 12 0 10 -8 15 -22 13 -19 -2 -24 3 -26 32 -2 19 -1
44 2 57 6 22 12 24 61 24 42 0 55 -4 59 -17z m469 -27 c-29 -26 -53 -33 -53
-16 0 14 74 62 78 50 2 -5 -9 -21 -25 -34z m-603 -2 c0 -22 -4 -33 -11 -29 -5
4 -20 -1 -32 -12 -22 -18 -22 -18 -4 3 9 11 17 26 17 32 0 7 5 12 10 12 6 0
10 7 10 15 0 8 2 15 5 15 3 0 5 -16 5 -36z m1433 11 c23 -17 17 -40 -24 -86
-17 -19 -27 -26 -24 -17 11 29 -22 34 -51 8 -13 -13 -24 -20 -24 -16 0 9 93
125 100 125 3 0 13 -6 23 -14z m-120 -43 c-18 -28 -35 -43 -41 -37 -6 6 43 73
50 69 4 -3 0 -17 -9 -32z m404 -45 c-26 -55 -97 -124 -117 -112 -13 8 -13 65
0 65 6 0 10 -5 10 -11 0 -22 30 13 50 57 22 52 34 57 25 12 -5 -29 -4 -30 6
-13 49 84 63 85 26 2z m-1127 33 c0 -5 -4 -10 -10 -10 -5 0 -10 5 -10 10 0 6
5 10 10 10 6 0 10 -4 10 -10z m-595 -64 c-2 -35 -9 -75 -16 -88 -7 -12 -12
-24 -11 -25 6 -10 0 -20 -12 -20 -12 0 -12 5 2 31 9 17 17 38 19 46 1 8 4 27
7 42 4 15 2 30 -4 33 -5 3 -10 1 -10 -6 0 -7 -3 -10 -6 -7 -5 6 24 58 32 58 1
0 1 -29 -1 -64z m1248 -31 c-3 -9 -8 -14 -10 -11 -3 3 -2 9 2 15 9 16 15 13 8
-4z m83 -33 c-9 -17 -13 -37 -10 -45 3 -8 -7 -27 -21 -43 -20 -23 -24 -24 -16
-7 6 12 16 25 21 28 6 3 10 10 10 15 0 5 -12 -2 -27 -16 -34 -31 -41 -24 -14
14 12 17 21 36 21 44 0 7 7 24 16 37 24 34 40 12 20 -27z m-1178 13 c6 -3 12
-18 12 -35 0 -22 -5 -30 -17 -30 -30 0 -63 12 -58 20 4 7 -16 17 -68 34 -10 3
-16 10 -13 15 5 8 113 5 144 -4z m1398 -39 c-9 -35 -64 -96 -87 -96 -23 0 -24
8 -3 48 16 33 38 54 28 28 -3 -9 -2 -16 3 -16 13 0 38 30 47 54 9 27 20 12 12
-18z m-1074 -4 c-1 -7 3 -12 10 -11 7 1 24 0 38 -1 18 -2 20 -4 8 -7 -10 -2
-18 -9 -18 -14 0 -10 -71 -12 -147 -3 -46 6 -53 10 -53 29 0 21 4 22 83 21 61
-1 81 -4 79 -14z m916 -64 c-17 -25 -63 -39 -56 -16 4 13 44 38 62 38 5 0 2
-10 -6 -22z m18 -31 c-19 -34 -113 -87 -155 -87 -22 0 -22 0 -4 31 10 16 28
40 41 52 l24 22 -7 -27 c-4 -16 -4 -28 0 -28 22 0 96 46 101 62 3 11 9 17 12
13 3 -3 -2 -20 -12 -38z m-1446 -11 c-5 -13 -7 -55 -5 -93 2 -37 -2 -106 -10
-153 l-14 -85 3 125 c4 138 10 201 20 219 12 19 16 12 6 -13z m1530 -86 c0
-39 1 -40 36 -40 34 0 35 -1 32 -32 l-3 -33 -137 -3 c-127 -2 -160 3 -128 23
6 3 10 15 10 26 0 17 7 19 75 19 l75 0 0 40 c0 33 3 40 20 40 17 0 20 -7 20
-40z m-1607 -290 c2 -141 6 -190 17 -207 10 -16 11 -27 3 -45 -6 -13 -8 -38
-6 -56 5 -32 -22 -91 -35 -77 -4 3 0 10 8 15 9 6 10 10 3 10 -6 0 -14 -4 -18
-10 -3 -5 -12 -7 -20 -3 -8 3 -15 0 -15 -7 0 -6 4 -9 9 -5 5 3 13 0 17 -6 5
-9 -1 -10 -22 -5 -16 4 -30 8 -31 9 -1 1 5 29 12 62 7 33 17 114 21 180 5 66
9 125 9 130 1 6 5 51 9 100 3 50 9 124 13 165 l7 75 8 -70 c5 -38 10 -153 11
-255z m647 245 c0 -6 -30 -67 -36 -74 -2 -2 -12 6 -22 19 -41 51 -130 -3 -154
-93 -15 -57 -6 -78 39 -91 25 -7 39 -3 77 19 l46 27 -11 -31 c-12 -34 -64 -71
-101 -71 -14 0 -39 -7 -56 -16 l-31 -15 21 -57 c23 -64 34 -81 24 -39 -16 70
-17 82 -7 66 14 -22 44 -215 36 -239 -4 -14 -14 -20 -33 -19 -23 2 -24 2 -5 6
15 3 20 9 16 20 -4 11 -2 14 5 9 8 -5 12 2 12 19 0 17 -4 24 -11 19 -8 -4 -9
3 -4 24 3 17 2 39 -4 49 -8 14 -10 1 -11 -54 0 -58 -3 -73 -15 -73 -8 0 -15
-6 -15 -12 0 -7 -7 1 -16 17 -12 22 -14 46 -10 90 3 34 2 54 -3 47 -5 -8 -7
25 -5 75 2 63 0 77 -5 48 -6 -29 -9 -4 -10 86 -1 102 2 129 14 139 17 14 21
35 5 25 -5 -3 -10 0 -10 8 0 10 7 13 20 10 12 -3 27 4 42 19 13 14 32 30 43
36 20 11 175 17 175 7z m184 -17 c-3 -13 -15 -42 -25 -65 -11 -23 -19 -50 -19
-60 -1 -10 -7 -29 -15 -43 -21 -37 -19 -60 6 -60 14 0 19 -5 17 -17 -3 -15
-17 -18 -96 -21 -57 -2 -92 1 -92 7 0 13 33 31 58 31 13 0 22 12 32 43 7 23
21 63 31 89 26 64 25 68 -18 68 -32 0 -35 2 -23 14 18 18 73 34 118 35 30 1
33 -1 26 -21z m274 10 c23 -23 13 -56 -24 -85 -35 -26 -35 -28 -15 -37 52 -23
25 -79 -66 -133 -50 -29 -145 -42 -168 -23 -27 22 0 40 53 34 40 -5 54 -1 90
22 23 16 42 34 42 41 0 19 -41 43 -73 43 -40 0 -29 21 19 35 21 6 49 17 62 24
26 14 30 50 5 52 -25 2 -23 2 -70 -6 -35 -5 -43 -4 -43 9 0 8 8 20 18 25 24
15 155 14 170 -1z m292 7 c0 -20 -39 -74 -91 -127 -33 -33 -64 -70 -70 -80 -5
-10 -14 -16 -19 -13 -5 3 -12 0 -16 -6 -4 -8 -3 -9 4 -5 23 14 11 -13 -14 -33
-24 -19 -74 -29 -74 -15 0 14 60 85 127 151 40 40 73 74 73 77 0 3 -30 4 -66
2 -50 -3 -71 -9 -89 -26 -28 -26 -39 -13 -19 24 7 16 14 35 14 42 0 11 24 14
120 14 66 0 120 -2 120 -5z m-1011 -39 c10 -12 8 -13 -8 -9 -12 3 -18 9 -15
14 7 12 10 11 23 -5z m-939 -71 c1 -28 227 -273 335 -363 22 -18 30 -28 18
-23 -37 19 -38 12 -3 -24 18 -19 31 -37 28 -40 -9 -10 -207 185 -270 265 -32
41 -62 80 -67 86 -22 27 -61 95 -76 130 l-16 39 25 -30 c14 -16 25 -35 26 -40z
m1960 27 c0 -18 -79 -84 -96 -80 -14 2 -9 11 27 45 41 40 69 54 69 35z m-1363
-179 c-3 -10 -5 -4 -5 12 0 17 2 24 5 18 2 -7 2 -21 0 -30z m443 -373 c0 -5
-8 -10 -17 -10 -10 0 -28 -3 -40 -6 -13 -4 -23 -2 -23 4 0 6 15 13 33 15 17 2
35 5 40 5 4 1 7 -2 7 -8z m-491 -26 c-8 -10 -23 -14 -40 -12 -16 3 -26 1 -23
-4 12 -19 -9 -29 -27 -12 -18 17 -21 17 -36 1 -10 -9 -12 -17 -6 -17 6 0 13 5
15 12 2 6 10 8 16 4 9 -5 4 -16 -18 -39 -16 -17 -30 -35 -30 -40 0 -4 -8 -7
-17 -6 -24 3 -54 -11 -47 -22 3 -5 -9 -6 -27 -2 -25 5 -31 3 -27 -8 2 -8 22
-17 44 -20 34 -6 31 -6 -19 -6 -31 0 -60 -3 -64 -6 -3 -4 34 -8 83 -8 62 -1
80 -4 59 -9 -43 -11 -127 -11 -144 -1 -25 16 2 53 60 85 56 30 122 86 113 95
-5 5 68 20 140 30 5 0 3 -6 -5 -15z m441 -59 c-4 -33 -8 -52 -9 -43 0 11 -6
15 -16 12 -12 -5 -15 2 -15 27 0 38 8 54 30 61 8 3 15 5 16 4 0 0 -3 -28 -6
-61z m-413 41 c0 -8 -6 -12 -14 -9 -7 3 -10 9 -7 14 8 14 21 11 21 -5z m11
-88 c-3 -7 -13 -15 -24 -17 -16 -3 -17 -1 -5 13 16 19 34 21 29 4z m472 -19
c0 -14 -27 -10 -33 5 -4 10 0 12 14 9 10 -3 19 -9 19 -14z m-23 -73 c45 1 46
1 16 -8 -49 -13 -97 2 -102 32 l-3 25 20 -25 c17 -21 28 -25 69 -24z m-33 29
c3 -9 0 -15 -9 -15 -8 0 -15 7 -15 15 0 8 4 15 9 15 5 0 11 -7 15 -15z m113
-21 c-3 -3 -12 -4 -19 -1 -8 3 -5 6 6 6 11 1 17 -2 13 -5z"/>
<path d="M2080 3813 c0 -4 5 -15 10 -23 8 -13 10 -13 10 2 0 9 -4 20 -10 23
-5 3 -10 3 -10 -2z"/>
<path d="M2170 3782 c0 -12 19 -26 26 -19 2 2 -2 10 -11 17 -9 8 -15 8 -15 2z"/>
<path d="M1921 3717 c2 -1 13 -9 24 -17 19 -14 19 -14 6 3 -7 9 -18 17 -24 17
-6 0 -8 -1 -6 -3z"/>
<path d="M1900 3705 c0 -6 8 -18 18 -26 32 -29 72 -86 72 -103 0 -2 -8 -7 -17
-9 -16 -4 -16 -5 -1 -6 25 -2 31 15 14 46 -18 35 -85 111 -86 98z"/>
<path d="M2414 3651 c4 -5 1 -12 -4 -14 -6 -3 -5 -4 2 -3 15 3 23 26 8 26 -6
0 -9 -4 -6 -9z"/>
<path d="M1262 3454 c-5 -9 -7 -24 -5 -34 3 -11 -8 -25 -31 -41 -37 -25 -47
-49 -21 -49 7 0 18 -7 23 -15 12 -23 34 -10 60 35 25 45 27 56 10 93 -15 31
-23 34 -36 11z"/>
<path d="M1780 3445 c0 -15 18 -40 24 -34 3 3 -1 14 -9 25 -8 10 -14 15 -15 9z"/>
<path d="M1821 3334 c0 -11 3 -14 6 -6 3 7 2 16 -1 19 -3 4 -6 -2 -5 -13z"/>
<path d="M2215 3690 c4 -6 11 -8 16 -5 14 9 11 15 -7 15 -8 0 -12 -5 -9 -10z"/>
<path d="M2260 3620 c0 -5 5 -10 10 -10 6 0 10 5 10 10 0 6 -4 10 -10 10 -5 0
-10 -4 -10 -10z"/>
<path d="M2125 3520 c11 -5 27 -9 35 -9 13 -1 13 0 0 9 -8 5 -24 9 -35 9 l-20
0 20 -9z"/>
<path d="M3374 3005 c3 -38 6 -92 6 -120 1 -48 1 -49 15 -25 23 40 19 149 -6
185 l-21 30 6 -70z"/>
<path d="M3415 2645 c-4 -11 -16 -31 -26 -45 -9 -14 -20 -48 -24 -75 l-6 -50
26 30 c31 36 48 89 43 130 -4 27 -5 28 -13 10z"/>
<path d="M1720 3446 c0 -2 7 -6 15 -10 8 -3 15 -1 15 4 0 6 -7 10 -15 10 -8 0
-15 -2 -15 -4z"/>
<path d="M2275 3290 c3 -5 8 -10 11 -10 2 0 4 5 4 10 0 6 -5 10 -11 10 -5 0
-7 -4 -4 -10z"/>
<path d="M1735 3090 c3 -5 8 -10 11 -10 2 0 4 5 4 10 0 6 -5 10 -11 10 -5 0
-7 -4 -4 -10z"/>
<path d="M2330 3219 c0 -5 5 -7 10 -4 6 3 10 8 10 11 0 2 -4 4 -10 4 -5 0 -10
-5 -10 -11z"/>
<path d="M2329 2937 c-14 -19 -14 -26 -2 -52 12 -27 13 -18 2 24 -2 7 2 16 9
18 8 3 10 -2 6 -14 -4 -13 -3 -15 4 -4 5 7 7 22 5 32 -6 23 -5 23 -24 -4z"/>
<path d="M2320 2839 c0 -5 -3 -8 -8 -5 -4 2 -8 -14 -8 -37 0 -23 -3 -51 -7
-62 -5 -11 -2 -9 6 5 13 23 30 110 21 110 -2 0 -4 -5 -4 -11z"/>
<path d="M2280 2780 c-6 -11 -9 -29 -7 -38 4 -13 5 -13 6 4 0 11 6 25 13 32 6
6 9 14 6 18 -4 3 -12 -4 -18 -16z"/>
<path d="M1952 2980 c0 -19 2 -27 5 -17 2 9 2 25 0 35 -3 9 -5 1 -5 -18z"/>
<path d="M2272 2951 c-6 -17 -7 -31 -3 -31 8 0 22 52 16 58 -1 2 -7 -11 -13
-27z"/>
<path d="M2221 2813 c-1 -6 -4 -20 -7 -30 -5 -17 -5 -17 6 0 6 10 9 23 6 30
-3 9 -5 9 -5 0z"/>
<path d="M2186 2725 c-9 -26 -7 -32 5 -12 6 10 9 21 6 23 -2 3 -7 -2 -11 -11z"/>
<path d="M2536 2517 c3 -10 9 -15 12 -12 3 3 0 11 -7 18 -10 9 -11 8 -5 -6z"/>
<path d="M2023 2480 c0 -25 2 -35 4 -22 2 12 2 32 0 45 -2 12 -4 2 -4 -23z"/>
<path d="M2647 2496 c-3 -8 -2 -18 3 -21 13 -8 20 9 11 24 -6 10 -10 9 -14 -3z"/>
<path d="M2197 2076 c-4 -10 -3 -15 3 -11 6 3 10 1 10 -6 0 -7 3 -10 6 -6 3 3
2 13 -4 22 -8 16 -9 16 -15 1z"/>
<path d="M2833 2295 c0 -38 2 -53 4 -32 2 20 2 52 0 70 -2 17 -4 1 -4 -38z"/>
<path d="M2681 2409 c6 -24 13 -46 16 -49 10 -9 -6 73 -16 83 -6 6 -6 -7 0
-34z"/>
<path d="M2660 2376 c0 -8 4 -17 9 -20 5 -4 7 3 4 14 -6 23 -13 26 -13 6z"/>
<path d="M2700 2330 c0 -5 5 -10 10 -10 6 0 10 5 10 10 0 6 -4 10 -10 10 -5 0
-10 -4 -10 -10z"/>
<path d="M2620 2327 c0 -16 21 -47 33 -47 8 0 9 3 1 8 -6 4 -16 16 -22 27 -6
11 -12 16 -12 12z"/>
<path d="M2536 2132 c-9 -28 -10 -101 -3 -108 4 -4 7 19 7 50 0 48 3 57 15 52
8 -3 15 -1 15 3 0 17 -29 20 -34 3z"/>
<path d="M2551 2084 c0 -11 3 -14 6 -6 3 7 2 16 -1 19 -3 4 -6 -2 -5 -13z"/>
<path d="M2641 2074 c0 -11 3 -14 6 -6 3 7 2 16 -1 19 -3 4 -6 -2 -5 -13z"/>
<path d="M2501 2040 c-6 -18 -6 -30 0 -30 5 0 9 3 10 8 0 4 2 17 5 30 6 31 -2
27 -15 -8z"/>
<path d="M2496 1992 c-35 -21 -69 -67 -42 -56 9 3 16 13 16 21 0 10 6 13 15 9
9 -3 18 1 21 9 4 8 10 12 15 9 5 -3 9 2 9 10 0 9 -1 16 -2 15 -2 0 -16 -8 -32
-17z"/>
<path d="M2551 1984 c0 -11 3 -14 6 -6 3 7 2 16 -1 19 -3 4 -6 -2 -5 -13z"/>
<path d="M2510 1955 c-11 -13 -15 -13 -21 -3 -6 9 -9 6 -9 -10 0 -13 -4 -21
-8 -18 -12 7 -7 -43 6 -56 8 -8 18 -3 36 17 22 23 24 31 14 43 -10 12 -10 16
0 19 14 5 17 23 3 23 -5 0 -14 -7 -21 -15z m5 -35 c3 -5 -4 -19 -16 -31 -18
-18 -21 -19 -16 -5 4 10 7 24 7 32 0 16 16 19 25 4z"/>
<path d="M2421 1915 c0 -5 3 -16 8 -23 6 -10 11 -9 22 4 12 16 12 17 -3 11 -9
-3 -19 -1 -22 6 -2 7 -5 8 -5 2z"/>
<path d="M3511 2142 c-1 -7 -17 -35 -36 -62 -20 -28 -33 -55 -30 -59 7 -12 -5
-41 -17 -41 -6 0 -5 7 2 15 24 29 2 27 -29 -3 -27 -26 -29 -31 -16 -42 9 -7
13 -21 10 -31 -4 -11 -2 -19 5 -19 6 0 8 5 5 10 -3 6 -1 10 6 10 8 0 7 5 -2
17 -12 15 -12 16 3 10 13 -5 22 2 33 23 8 16 15 35 15 42 0 7 9 19 20 26 11 7
20 18 20 25 0 8 -4 7 -10 -3 -8 -13 -10 -12 -10 3 0 9 7 17 16 17 8 0 12 5 9
10 -4 6 -1 17 5 25 7 8 10 20 7 27 -4 10 -6 10 -6 0z m-87 -180 c2 -4 -4 -8
-14 -8 -10 0 -16 4 -14 8 3 4 9 8 14 8 5 0 11 -4 14 -8z"/>
<path d="M3065 2130 c3 -5 10 -10 16 -10 5 0 9 5 9 10 0 6 -7 10 -16 10 -8 0
-12 -4 -9 -10z"/>
<path d="M3395 2109 c-9 -14 -2 -20 14 -10 8 6 9 11 3 15 -6 3 -14 1 -17 -5z"/>
<path d="M3425 2101 c-9 -30 6 -50 17 -21 5 14 5 27 -1 33 -5 5 -12 1 -16 -12z"/>
<path d="M3320 1890 c0 -5 5 -10 11 -10 5 0 7 5 4 10 -3 6 -8 10 -11 10 -2 0
-4 -4 -4 -10z"/>
<path d="M3365 1879 c-11 -17 -2 -18 19 -3 17 12 17 14 4 14 -9 0 -20 -5 -23
-11z"/>
<path d="M3346 1768 c-19 -27 -21 -45 -3 -26 28 30 39 48 29 48 -6 0 -18 -10
-26 -22z"/>
<path d="M3370 1750 c-9 -17 -9 -25 0 -34 6 -6 10 -6 9 -1 -1 6 1 18 6 28 11
26 -1 32 -15 7z"/>
<path d="M3347 1696 c3 -15 1 -26 -5 -26 -6 0 -12 -8 -15 -17 -4 -17 -4 -17
-12 1 -5 11 -3 21 5 26 7 4 11 12 9 18 -2 6 -20 -7 -40 -29 -31 -34 -34 -42
-23 -57 12 -15 15 -15 24 -2 6 9 10 10 10 3 0 -7 -8 -16 -17 -22 -16 -9 -16
-10 4 -8 12 0 19 5 17 9 -3 4 0 8 7 8 8 0 8 4 -1 15 -7 8 -20 15 -29 15 -14 0
-14 2 -1 10 10 6 16 6 18 0 2 -6 8 -8 13 -4 5 3 9 0 9 -7 0 -6 12 5 26 26 22
33 24 40 11 52 -13 13 -14 12 -10 -11z"/>
<path d="M3198 1581 c-15 -23 -20 -37 -12 -34 8 3 14 9 14 13 0 15 43 19 56 5
11 -10 11 -15 1 -18 -7 -4 -8 -6 -1 -6 6 -1 18 7 25 16 8 9 9 14 2 10 -7 -5
-14 2 -19 15 -6 21 -21 37 -35 38 -3 0 -17 -18 -31 -39z m42 19 c0 -5 -5 -10
-11 -10 -5 0 -7 5 -4 10 3 6 8 10 11 10 2 0 4 -4 4 -10z"/>
<path d="M2095 2080 c3 -5 8 -10 11 -10 2 0 4 5 4 10 0 6 -5 10 -11 10 -5 0
-7 -4 -4 -10z"/>
<path d="M2138 1984 c-4 -6 1 -19 12 -29 11 -10 20 -13 20 -7 0 6 8 9 18 6 16
-5 16 -5 -1 6 -9 6 -21 9 -26 5 -5 -3 -11 3 -13 12 -2 12 -6 14 -10 7z"/>
<path d="M2192 1888 c2 -6 10 -14 16 -16 7 -2 10 2 6 12 -7 18 -28 22 -22 4z"/>
<path d="M2222 1858 c-14 -14 -16 -28 -3 -28 9 0 24 30 18 36 -2 2 -9 -2 -15
-8z"/>
<path d="M2013 1155 c0 -22 2 -30 4 -17 2 12 2 30 0 40 -3 9 -5 -1 -4 -23z"/>
<path d="M1947 712 c1 -8 3 -18 3 -23 0 -6 5 -7 10 -4 6 3 10 13 10 21 0 8 -4
13 -9 10 -5 -4 -11 -3 -14 1 -2 5 -2 2 0 -5z"/>
<path d="M1909 683 c-6 -32 -2 -93 6 -93 6 0 3 -5 -5 -10 -9 -6 -10 -10 -3
-10 6 0 15 5 18 11 4 6 12 8 19 6 7 -3 13 7 14 27 2 22 0 27 -7 16 -5 -8 -8
-17 -5 -21 2 -4 -2 -9 -9 -12 -10 -4 -13 7 -10 44 1 27 -2 49 -7 49 -6 0 -11
-3 -11 -7z"/>
<path d="M2347 671 c-4 -19 -5 -36 -2 -39 10 -11 16 7 13 40 l-3 33 -8 -34z"/>
<path d="M2346 611 c-3 -5 1 -11 9 -15 9 -3 15 0 15 9 0 16 -16 20 -24 6z"/>
<path d="M2371 454 c0 -11 3 -14 6 -6 3 7 2 16 -1 19 -3 4 -6 -2 -5 -13z"/>
</g>
</svg>
